<svg xmlns="http://www.w3.org/2000/svg" width="300" height="62" viewBox="0 0 454 94" fill="none"><path fill="#000" d="M226.72 46.88c-22 0-39.84 17.84-39.84 39.84s17.84 39.84 39.84 39.84 39.84-17.84 39.84-39.84-17.84-39.84-39.84-39.84Zm14.4 60.96c-4.4 4.32-10.08 6.8-16.32 6.8-6.24 0-11.92-2.48-16.32-6.8-4.4-4.4-6.8-10.08-6.8-16.32s2.48-11.92 6.8-16.32c4.4-4.4 10.08-6.8 16.32-6.8 6.24 0 11.92 2.48 16.32 6.8 4.4 4.4 6.8 10.08 6.8 16.32s-2.4 11.92-6.8 16.32Z"/><path fill="#000" d="M73.12 93.6h21.28V.8h-21.28v92.8Zm64.48-72.48h21.28v72.48h-21.28V21.12Zm68.48 72.48h21.28V.8h-21.28v92.8Zm-154.08 0h21.28V.8H52v92.8Z"/><path fill="#000" d="M300.56 46.88c-22 0-39.84 17.84-39.84 39.84s17.84 39.84 39.84 39.84 39.84-17.84 39.84-39.84-17.84-39.84-39.84-39.84Zm14.4 60.96c-4.4 4.32-10.08 6.8-16.32 6.8-6.24 0-11.92-2.48-16.32-6.8-4.4-4.4-6.8-10.08-6.8-16.32s2.48-11.92 6.8-16.32c4.4-4.4 10.08-6.8 16.32-6.8 6.24 0 11.92 2.48 16.32 6.8 4.4 4.4 6.8 10.08 6.8 16.32s-2.4 11.92-6.8 16.32Z"/><path fill="#000" d="M454 93.6h-21.28l-38.56-47.2V93.6h-21.28V.8h21.28l38.56 47.2V.8H454v92.8Z"/></svg>