<svg width="116" height="24" viewBox="0 0 116 24" fill="none" xmlns="http://www.w3.org/2000/svg">
<path d="M2.13333 2.88L0 4.2V23.34L11.9467 17.22V6.9L2.13333 2.88Z" fill="black"/>
<path d="M11.9467 6.9V17.22L23.8933 23.34V4.2L11.9467 6.9Z" fill="black"/>
<path d="M23.8933 4.2L11.9467 0.0599976L0 4.2V2.88L11.9467 2.22L23.8933 4.2Z" fill="black"/>
<path d="M39.6134 13.02C39.6134 12.3 39.4267 11.64 39.0534 11.04C38.6801 10.44 38.1467 9.96 37.4534 9.6C36.7601 9.24 35.9601 9.06 35.0534 9.06C34.1467 9.06 33.3467 9.24 32.6534 9.6C31.9601 9.96 31.4267 10.44 31.0534 11.04C30.6801 11.64 30.4934 12.3 30.4934 13.02C30.4934 13.74 30.6801 14.4 31.0534 15C31.4267 15.6 31.9601 16.08 32.6534 16.44C33.3467 16.8 34.1467 16.98 35.0534 16.98C35.9601 16.98 36.7601 16.8 37.4534 16.44C38.1467 16.08 38.6801 15.6 39.0534 15C39.4267 14.4 39.6134 13.74 39.6134 13.02ZM36.8134 15.3C36.4934 15.72 36.0667 16.02 35.5334 16.14C35.0001 16.32 34.5201 16.32 34.0934 16.14C33.6134 15.96 33.2401 15.66 32.9734 15.24C32.7067 14.82 32.5734 14.34 32.5734 13.8C32.5734 12.66 33.0934 11.46 34.1334 10.2C34.4001 10.5 34.6667 10.74 34.9334 10.92C35.2001 11.1 35.4401 11.22 35.6534 11.28C35.8667 11.34 36.0667 11.34 36.2534 11.28C36.4401 11.22 36.6134 11.1 36.7734 10.92C36.9334 10.74 37.0667 10.5 37.1734 10.2C37.2801 9.9 37.3334 9.54 37.3334 9.12C37.3334 8.7 37.2534 8.34 37.0934 8.04C36.9334 7.74 36.7067 7.5 36.4134 7.32C36.1201 7.14 35.7601 7.02 35.3334 6.96C34.9067 6.9 34.4667 6.9 34.0134 6.96L32.4934 7.32C33.1467 6.18 34.0134 5.64 35.0934 5.64C35.8401 5.64 36.4667 5.82 36.9734 6.18C37.4801 6.54 37.8534 7.02 38.0934 7.62C38.3334 8.22 38.4534 8.88 38.4534 9.6C38.4534 10.32 38.3067 10.98 38.0134 11.58C37.7201 12.18 37.3201 12.66 36.8134 13.02V15.3Z" fill="black"/>
<path d="M44.6533 11.82C44.9466 11.58 45.2799 11.4 45.6533 11.28C46.0266 11.16 46.4133 11.1 46.8133 11.1C47.2133 11.1 47.6133 11.16 47.9866 11.28C48.3599 11.4 48.6933 11.58 48.9866 11.82C49.2799 12.06 49.5066 12.36 49.6666 12.72C49.8266 13.08 49.9066 13.44 49.9066 13.8C49.9066 14.16 49.8266 14.52 49.6666 14.88C49.5066 15.24 49.2799 15.54 48.9866 15.78C48.6933 16.02 48.3599 16.2 47.9866 16.32C47.6133 16.44 47.2133 16.5 46.8133 16.5C46.4133 16.5 46.0266 16.44 45.6533 16.32C45.2799 16.2 44.9466 16.02 44.6533 15.78C44.3599 15.54 44.1333 15.24 43.9733 14.88C43.8133 14.52 43.7333 14.16 43.7333 13.8C43.7333 13.44 43.8133 13.08 43.9733 12.72C44.1333 12.36 44.3599 12.06 44.6533 11.82ZM42.4933 9.3C41.8933 9.84 41.4266 10.5 41.0933 11.28C40.7599 12.06 40.5933 12.9 40.5933 13.8C40.5933 14.7 40.7599 15.54 41.0933 16.32C41.4266 17.1 41.8933 17.76 42.4933 18.3C43.0933 18.84 43.8133 19.26 44.6533 19.56C45.4933 19.86 46.3599 20.01 47.2533 20.01C48.1466 20.01 49.0133 19.86 49.8533 19.56C50.6933 19.26 51.4133 18.84 52.0133 18.3C52.6133 17.76 53.0799 17.1 53.4133 16.32C53.7466 15.54 53.9133 14.7 53.9133 13.8C53.9133 12.9 53.7466 12.06 53.4133 11.28C53.0799 10.5 52.6133 9.84 52.0133 9.3C51.4133 8.76 50.6933 8.34 49.8533 8.04C49.0133 7.74 48.1466 7.59 47.2533 7.59C46.3599 7.59 45.4933 7.74 44.6533 8.04C43.8133 8.34 43.0933 8.76 42.4933 9.3Z" fill="black"/>
<path d="M63.5333 13.02C63.5333 13.92 63.3466 14.76 62.9733 15.54C62.5999 16.32 62.0333 16.98 61.2733 17.52C60.5133 18.06 59.6399 18.42 58.6533 18.6C57.6666 18.78 56.6933 18.72 55.7333 18.42L55.0933 16.5C55.8399 16.86 56.5599 16.98 57.2533 16.86C57.9466 16.74 58.5599 16.44 59.0933 15.96C59.6266 15.48 60.0133 14.82 60.2533 13.98L55.8933 9.42C55.5599 9.06 55.2533 8.76 54.9733 8.52C54.6933 8.28 54.4399 8.1 54.2133 7.98C53.9866 7.86 53.7599 7.8 53.5333 7.8C53.3066 7.8 53.0933 7.86 52.8933 7.98C52.6933 8.1 52.5333 8.28 52.4133 8.52C52.2933 8.76 52.2333 9.06 52.2333 9.42C52.2333 9.78 52.3333 10.14 52.5333 10.5L54.7733 12.9L53.2533 14.7C52.8799 15.18 52.5733 15.66 52.3333 16.14C52.0933 16.62 51.9733 17.1 51.9733 17.58C51.9733 18.12 52.1199 18.6 52.4133 19.02C52.7066 19.44 53.0933 19.74 53.5733 19.92C54.0533 20.1 54.5733 20.16 55.1333 20.1C55.6933 20.04 56.2533 19.86 56.8133 19.56L58.2533 20.04C57.4133 20.52 56.5199 20.76 55.5733 20.76C54.6266 20.76 53.7999 20.52 53.0933 20.04C52.3866 19.56 51.8399 18.9 51.4533 18.06C51.0666 17.22 50.8733 16.26 50.8733 15.18C50.8733 14.1 51.1133 13.14 51.5933 12.3C52.0733 11.46 52.7533 10.8 53.6333 10.32C54.5133 9.84 55.4799 9.6 56.5333 9.6C57.1599 9.6 57.7199 9.72 58.2133 9.96C58.7066 10.2 59.1199 10.5 59.4533 10.86L63.5333 13.02Z" fill="black"/>
<path d="M73.4933 13.02C73.4933 12.3 73.3066 11.64 72.9333 11.04C72.5599 10.44 72.0266 9.96 71.3333 9.6C70.6399 9.24 69.8399 9.06 68.9333 9.06C68.0266 9.06 67.2266 9.24 66.5333 9.6C65.8399 9.96 65.3066 10.44 64.9333 11.04C64.5599 11.64 64.3733 12.3 64.3733 13.02C64.3733 13.74 64.5599 14.4 64.9333 15C65.3066 15.6 65.8399 16.08 66.5333 16.44C67.2266 16.8 68.0266 16.98 68.9333 16.98C69.8399 16.98 70.6399 16.8 71.3333 16.44C72.0266 16.08 72.5599 15.6 72.9333 15C73.3066 14.4 73.4933 13.74 73.4933 13.02ZM70.6933 15.3C70.3733 15.72 69.9466 16.02 69.4133 16.14C68.8799 16.32 68.3999 16.32 67.9733 16.14C67.4933 15.96 67.1199 15.66 66.8533 15.24C66.5866 14.82 66.4533 14.34 66.4533 13.8C66.4533 12.66 66.9733 11.46 68.0133 10.2C68.2799 10.5 68.5466 10.74 68.8133 10.92C69.0799 11.1 69.3199 11.22 69.5333 11.28C69.7466 11.34 69.9466 11.34 70.1333 11.28C70.3199 11.22 70.4933 11.1 70.6533 10.92C70.8133 10.74 70.9466 10.5 71.0533 10.2C71.1599 9.9 71.2133 9.54 71.2133 9.12C71.2133 8.7 71.1333 8.34 70.9733 8.04C70.8133 7.74 70.5866 7.5 70.2933 7.32C69.9999 7.14 69.6399 7.02 69.2133 6.96C68.7866 6.9 68.3466 6.9 67.8933 6.96L66.3733 7.32C67.0266 6.18 67.8933 5.64 68.9733 5.64C69.7199 5.64 70.3466 5.82 70.8533 6.18C71.3599 6.54 71.7333 7.02 71.9733 7.62C72.2133 8.22 72.3333 8.88 72.3333 9.6C72.3333 10.32 72.1866 10.98 71.8933 11.58C71.5999 12.18 71.1999 12.66 70.6933 13.02V15.3Z" fill="black"/>
<path d="M76.3333 7.8V20.28H78.4133V7.8H76.3333Z" fill="black"/>
<path d="M86.3333 14.1L82.0133 7.8H84.4133L87.4133 12.42L90.4133 7.8H92.8133L88.4933 14.1V20.28H86.3333V14.1Z" fill="black"/>
<path d="M95.6934 7.8H97.7734V16.92C97.7734 18.12 98.1134 19.02 98.7934 19.62C99.4734 20.22 100.413 20.52 101.613 20.52C102.813 20.52 103.753 20.22 104.433 19.62C105.113 19.02 105.453 18.12 105.453 16.92V7.8H107.533V17.04C107.533 18.06 107.273 18.9 106.753 19.56C106.233 20.22 105.567 20.67 104.753 20.91C103.933 21.15 103.033 21.27 102.053 21.27C101.073 21.27 100.173 21.15 99.3534 20.91C98.5334 20.67 97.8667 20.22 97.3534 19.56C96.8334 18.9 96.5734 18.06 96.5734 17.04V12.96H96.4934C96.1594 13.56 95.7334 14.04 95.2134 14.4C94.6934 14.76 94.0867 14.94 93.3934 14.94C92.9994 14.94 92.6394 14.88 92.3134 14.76C91.9867 14.64 91.6934 14.46 91.4334 14.22C91.1734 13.98 90.9667 13.68 90.8134 13.32C90.6534 12.96 90.5734 12.54 90.5734 12.06C90.5734 11.58 90.6934 11.16 90.9334 10.8C91.1734 10.44 91.4934 10.14 91.8934 9.9C92.2934 9.66 92.7534 9.54 93.2734 9.54C94.1134 9.54 94.7934 9.84 95.3134 10.44V7.8H95.6934Z" fill="black"/>
<path d="M115.027 13.02C115.027 12.3 114.84 11.64 114.467 11.04C114.093 10.44 113.56 9.96 112.867 9.6C112.173 9.24 111.373 9.06 110.467 9.06C109.56 9.06 108.76 9.24 108.067 9.6C107.373 9.96 106.84 10.44 106.467 11.04C106.093 11.64 105.907 12.3 105.907 13.02C105.907 13.74 106.093 14.4 106.467 15C106.84 15.6 107.373 16.08 108.067 16.44C108.76 16.8 109.56 16.98 110.467 16.98C111.373 16.98 112.173 16.8 112.867 16.44C113.56 16.08 114.093 15.6 114.467 15C114.84 14.4 115.027 13.74 115.027 13.02ZM112.227 15.3C111.907 15.72 111.48 16.02 110.947 16.14C110.413 16.32 109.933 16.32 109.507 16.14C109.027 15.96 108.653 15.66 108.387 15.24C108.12 14.82 107.987 14.34 107.987 13.8C107.987 12.66 108.507 11.46 109.547 10.2C109.813 10.5 110.08 10.74 110.347 10.92C110.613 11.1 110.853 11.22 111.067 11.28C111.28 11.34 111.48 11.34 111.667 11.28C111.853 11.22 112.027 11.1 112.187 10.92C112.347 10.74 112.48 10.5 112.587 10.2C112.693 9.9 112.747 9.54 112.747 9.12C112.747 8.7 112.667 8.34 112.507 8.04C112.347 7.74 112.12 7.5 111.827 7.32C111.533 7.14 111.173 7.02 110.747 6.96C110.32 6.9 109.88 6.9 109.427 6.96L107.907 7.32C108.56 6.18 109.427 5.64 110.507 5.64C111.253 5.64 111.88 5.82 112.387 6.18C112.893 6.54 113.267 7.02 113.507 7.62C113.747 8.22 113.867 8.88 113.867 9.6C113.867 10.32 113.72 10.98 113.427 11.58C113.133 12.18 112.733 12.66 112.227 13.02V15.3Z" fill="black"/>
</svg>
